{
	"asset":{
		"version":"2.0",
		"generator":"Created using the official Cinema 4D glTF Exporter 1.000x284978"
	},
	"scenes":[{
		"nodes":[0]
	}],
	"nodes":[{
		"name":"Cube",
		"mesh":0
	}],
	"meshes":[{
		"name":"Cube",
		"primitives":[{
			"attributes":{
				"POSITION":1,
				"NORMAL":2,
				"TEXCOORD_0":3
			},
			"indices":0,
			"material":0
		}]
	}],
	"accessors":[{
		"bufferView":0,
		"type":"SCALAR",
		"componentType":5123,
		"count":432,
		"byteOffset":0,
		"min":[0],
		"max":[171]
	},
	{
		"bufferView":1,
		"type":"VEC3",
		"componentType":5126,
		"count":172,
		"byteOffset":0,
		"min":[-1.414214015007019,
		-1.6303110122680665,
		-1.7320319414138795],
		"max":[1.414214015007019,
		1.6303119659423829,
		1.7320319414138795]
	},
	{
		"bufferView":1,
		"type":"VEC3",
		"componentType":5126,
		"count":172,
		"byteOffset":12,
		"min":[-0.7070937752723694,
		-0.8191875219345093,
		-0.5791875123977661],
		"max":[0.7070937752723694,
		0.8191875219345093,
		0.5791875123977661]
	},
	{
		"bufferView":1,
		"type":"VEC2",
		"componentType":5126,
		"count":172,
		"byteOffset":24,
		"min":[0.125,
		0.0],
		"max":[0.875,
		1.0]
	}],
	"bufferViews":[{
		"buffer":0,
		"byteOffset":0,
		"byteLength":864,
		"target":34963
	},
	{
		"buffer":0,
		"byteOffset":864,
		"byteLength":5504,
		"target":34962,
		"byteStride":32
	}],
	"buffers":[{
		"byteLength":6368,
		"uri":"data:application/octet-stream;base64,"
	}],
	"materials":[{
		"pbrMetallicRoughness":{
			"baseColorFactor":[0.9921568627450981,
			0.7803921568627451,
			0.3529411764705882,
			1.0],
			"metallicFactor":1.0,
			"roughnessFactor":0.0
		},
		"emissiveFactor":[0.0,
		0.0,
		0.0],
		"alphaMode":"BLEND",
		"doubleSided":false,
		"name":"Material.001"
	}]
}