{
    "asset" : {
        "generator" : "Khronos glTF Blender I/O v1.3.48",
        "version" : "2.0"
    },
    "scene" : 0,
    "scenes" : [
        {
            "name" : "Scene",
            "nodes" : [
                0
            ]
        }
    ],
    "nodes" : [
        {
            "mesh" : 0,
            "name" : "Cube"
        }
    ],
    "materials" : [
        {
            "doubleSided" : true,
            "emissiveFactor" : [
                0.23301897943019867,
                0.1397203952074051,
                0.028707945719361305
            ],
            "name" : "Material.001",
            "pbrMetallicRoughness" : {
                "baseColorFactor" : [
                    0.9822508692741394,
                    0.5711250305175781,
                    0.10224176198244095,
                    1
                ],
                "metallicFactor" : 0,
                "roughnessFactor" : 0
            }
        },
        {
            "doubleSided" : true,
            "emissiveFactor" : [
                1,
                1,
                1
            ],
            "name" : "Material",
            "pbrMetallicRoughness" : {}
        }
    ],
    "meshes" : [
        {
            "name" : "Cube",
            "primitives" : [
                {
                    "attributes" : {
                        "POSITION" : 0,
                        "NORMAL" : 1
                    },
                    "indices" : 2,
                    "material" : 0
                },
                {
                    "attributes" : {
                        "POSITION" : 3,
                        "NORMAL" : 4
                    },
                    "indices" : 5,
                    "material" : 1
                }
            ]
        }
    ],
    "accessors" : [
        {
            "bufferView" : 0,
            "componentType" : 5126,
            "count" : 284,
            "max" : [
                1.4142135381698608,
                1.6303114891052246,
                1.7320318222045898
            ],
            "min" : [
                -1.4142135381698608,
                -1.6303117275238037,
                -1.732032299041748
            ],
            "type" : "VEC3"
        },
        {
            "bufferView" : 1,
            "componentType" : 5126,
            "count" : 284,
            "type" : "VEC3"
        },
        {
            "bufferView" : 2,
            "componentType" : 5123,
            "count" : 426,
            "type" : "SCALAR"
        },
        {
            "bufferView" : 3,
            "componentType" : 5126,
            "count" : 4,
            "max" : [
                0.1414213627576828,
                -1.4680798053741455,
                0.5848793983459473
            ],
            "min" : [
                -0.14142127335071564,
                -1.6303117275238037,
                0.35318827629089355
            ],
            "type" : "VEC3"
        },
        {
            "bufferView" : 4,
            "componentType" : 5126,
            "count" : 4,
            "type" : "VEC3"
        },
        {
            "bufferView" : 5,
            "componentType" : 5123,
            "count" : 6,
            "type" : "SCALAR"
        }
    ],
    "bufferViews" : [
        {
            "buffer" : 0,
            "byteLength" : 3408,
            "byteOffset" : 0
        },
        {
            "buffer" : 0,
            "byteLength" : 3408,
            "byteOffset" : 3408
        },
        {
            "buffer" : 0,
            "byteLength" : 852,
            "byteOffset" : 6816
        },
        {
            "buffer" : 0,
            "byteLength" : 48,
            "byteOffset" : 7668
        },
        {
            "buffer" : 0,
            "byteLength" : 48,
            "byteOffset" : 7716
        },
        {
            "buffer" : 0,
            "byteLength" : 12,
            "byteOffset" : 7764
        }
    ],
    "buffers" : [
        {
            "byteLength" : 7776,
            "uri" : "cube-gltf.bin"
        }
    ]
}
