{
    "asset" : {
        "generator" : "Khronos glTF Blender I/O v1.3.48",
        "version" : "2.0"
    },
    "extensionsUsed" : [
        "KHR_lights_punctual"
    ],
    "extensionsRequired" : [
        "KHR_lights_punctual"
    ],
    "extensions" : {
        "KHR_lights_punctual" : {
            "lights" : [
                {
                    "color" : [
                        1,
                        1,
                        1
                    ],
                    "intensity" : 50,
                    "type" : "point",
                    "name" : "Point.001"
                },
                {
                    "color" : [
                        1,
                        1,
                        1
                    ],
                    "intensity" : 50,
                    "type" : "point",
                    "name" : "Point.002"
                },
                {
                    "color" : [
                        1,
                        1,
                        1
                    ],
                    "intensity" : 50,
                    "type" : "point",
                    "name" : "Point.003"
                },
                {
                    "color" : [
                        1,
                        1,
                        1
                    ],
                    "intensity" : 50,
                    "type" : "point",
                    "name" : "Point.004"
                },
                {
                    "color" : [
                        1,
                        1,
                        1
                    ],
                    "intensity" : 50,
                    "type" : "point",
                    "name" : "Point.005"
                },
                {
                    "color" : [
                        1,
                        1,
                        1
                    ],
                    "intensity" : 50,
                    "type" : "point",
                    "name" : "Point.006"
                },
                {
                    "color" : [
                        1,
                        1,
                        1
                    ],
                    "intensity" : 50,
                    "type" : "point",
                    "name" : "Point.007"
                },
                {
                    "color" : [
                        1,
                        1,
                        1
                    ],
                    "intensity" : 50,
                    "type" : "point",
                    "name" : "Point.008"
                },
                {
                    "color" : [
                        1,
                        1,
                        1
                    ],
                    "intensity" : 100,
                    "type" : "point",
                    "name" : "Point"
                }
            ]
        }
    },
    "scene" : 0,
    "scenes" : [
        {
            "extras" : {
                "glTF2ExportSettings" : {
                    "export_animations" : 1,
                    "export_apply" : 1,
                    "export_colors" : 1,
                    "export_extras" : 1,
                    "export_format" : "GLTF_SEPARATE",
                    "export_lights" : 1,
                    "export_materials" : 1,
                    "export_morph" : 0,
                    "export_skins" : 0,
                    "export_tangents" : 1,
                    "export_texcoords" : 1,
                    "export_texture_dir" : "",
                    "export_yup" : 1,
                    "use_selection" : 1
                }
            },
            "name" : "Scene",
            "nodes" : [
                17
            ]
        }
    ],
    "nodes" : [
        {
            "extensions" : {
                "KHR_lights_punctual" : {
                    "light" : 0
                }
            },
            "name" : "Point.001_Orientation",
            "rotation" : [
                -0.7071067690849304,
                0,
                0,
                0.7071067690849304
            ]
        },
        {
            "children" : [
                0
            ],
            "name" : "Point.001",
            "translation" : [
                2.3545303344726562,
                1.3237015008926392,
                0.6000000238418579
            ]
        },
        {
            "extensions" : {
                "KHR_lights_punctual" : {
                    "light" : 1
                }
            },
            "name" : "Point.002_Orientation",
            "rotation" : [
                -0.7071067690849304,
                0,
                0,
                0.7071067690849304
            ]
        },
        {
            "children" : [
                2
            ],
            "name" : "Point.002",
            "translation" : [
                -2.277458429336548,
                1.3853589296340942,
                0.6000000238418579
            ]
        },
        {
            "extensions" : {
                "KHR_lights_punctual" : {
                    "light" : 2
                }
            },
            "name" : "Point.003_Orientation",
            "rotation" : [
                -0.7071067690849304,
                0,
                0,
                0.7071067690849304
            ]
        },
        {
            "children" : [
                4
            ],
            "name" : "Point.003",
            "translation" : [
                0,
                2.4316020011901855,
                -0.5838122367858887
            ]
        },
        {
            "extensions" : {
                "KHR_lights_punctual" : {
                    "light" : 3
                }
            },
            "name" : "Point.004_Orientation",
            "rotation" : [
                -0.7071067690849304,
                0,
                0,
                0.7071067690849304
            ]
        },
        {
            "children" : [
                6
            ],
            "name" : "Point.004",
            "translation" : [
                0,
                -2.292872905731201,
                0.7071270942687988
            ]
        },
        {
            "extensions" : {
                "KHR_lights_punctual" : {
                    "light" : 4
                }
            },
            "name" : "Point.005_Orientation",
            "rotation" : [
                -0.7071067690849304,
                0,
                0,
                0.7071067690849304
            ]
        },
        {
            "children" : [
                8
            ],
            "name" : "Point.005",
            "translation" : [
                0,
                0.1387292593717575,
                2.539116144180298
            ]
        },
        {
            "extensions" : {
                "KHR_lights_punctual" : {
                    "light" : 5
                }
            },
            "name" : "Point.006_Orientation",
            "rotation" : [
                -0.7071067690849304,
                0,
                0,
                0.7071067690849304
            ]
        },
        {
            "children" : [
                10
            ],
            "name" : "Point.006",
            "translation" : [
                0,
                -0.03082869201898575,
                -2.6932597160339355
            ]
        },
        {
            "extensions" : {
                "KHR_lights_punctual" : {
                    "light" : 6
                }
            },
            "name" : "Point.007_Orientation",
            "rotation" : [
                -0.7071067690849304,
                0,
                0,
                0.7071067690849304
            ]
        },
        {
            "children" : [
                12
            ],
            "name" : "Point.007",
            "translation" : [
                2.3237016201019287,
                -1.3387292623519897,
                -0.8229281902313232
            ]
        },
        {
            "extensions" : {
                "KHR_lights_punctual" : {
                    "light" : 7
                }
            },
            "name" : "Point.008_Orientation",
            "rotation" : [
                -0.7071067690849304,
                0,
                0,
                0.7071067690849304
            ]
        },
        {
            "children" : [
                14
            ],
            "name" : "Point.008",
            "translation" : [
                -2.2003867626190186,
                -1.3387292623519897,
                -0.8999999761581421
            ]
        },
        {
            "extensions" : {
                "KHR_lights_punctual" : {
                    "light" : 8
                }
            },
            "name" : "Point_Orientation",
            "rotation" : [
                -0.7071067690849304,
                0,
                0,
                0.7071067690849304
            ]
        },
        {
            "children" : [
                1,
                3,
                5,
                7,
                9,
                11,
                13,
                15,
                16
            ],
            "name" : "Point",
            "translation" : [
                0,
                -0.005642920732498169,
                0.004637032747268677
            ]
        }
    ],
    "animations" : [
        {
            "channels" : [
                {
                    "sampler" : 0,
                    "target" : {
                        "node" : 17,
                        "path" : "translation"
                    }
                },
                {
                    "sampler" : 1,
                    "target" : {
                        "node" : 17,
                        "path" : "rotation"
                    }
                },
                {
                    "sampler" : 2,
                    "target" : {
                        "node" : 17,
                        "path" : "scale"
                    }
                }
            ],
            "name" : "PointAction",
            "samplers" : [
                {
                    "input" : 0,
                    "interpolation" : "LINEAR",
                    "output" : 1
                },
                {
                    "input" : 0,
                    "interpolation" : "LINEAR",
                    "output" : 2
                },
                {
                    "input" : 0,
                    "interpolation" : "LINEAR",
                    "output" : 3
                }
            ]
        }
    ],
    "accessors" : [
        {
            "bufferView" : 0,
            "componentType" : 5126,
            "count" : 320,
            "max" : [
                10.666666666666666
            ],
            "min" : [
                0.03333333333333333
            ],
            "type" : "SCALAR"
        },
        {
            "bufferView" : 1,
            "componentType" : 5126,
            "count" : 320,
            "type" : "VEC3"
        },
        {
            "bufferView" : 2,
            "componentType" : 5126,
            "count" : 320,
            "type" : "VEC4"
        },
        {
            "bufferView" : 3,
            "componentType" : 5126,
            "count" : 320,
            "type" : "VEC3"
        }
    ],
    "bufferViews" : [
        {
            "buffer" : 0,
            "byteLength" : 1280,
            "byteOffset" : 0
        },
        {
            "buffer" : 0,
            "byteLength" : 3840,
            "byteOffset" : 1280
        },
        {
            "buffer" : 0,
            "byteLength" : 5120,
            "byteOffset" : 5120
        },
        {
            "buffer" : 0,
            "byteLength" : 3840,
            "byteOffset" : 10240
        }
    ],
    "buffers" : [
        {
            "byteLength" : 14080,
            "uri" : "cube-animated.bin"
        }
    ]
}
