# Blender v2.90.1 OBJ File: ''
# www.blender.org
mtllib untitled.mtl
o Cube
v 1.414214 -0.655322 -0.458861
v 1.414214 -0.819152 -0.573576
v 0.000000 -1.466481 0.699595
v 0.000000 -1.630312 0.584879
v 0.000000 0.155838 -1.617317
v 0.000000 -0.007992 -1.732032
v -1.414214 -0.655322 -0.458861
v -1.414214 -0.819152 -0.573577
v 1.272792 -0.738036 -0.689422
v 0.141421 -0.089108 -1.616187
v -0.141421 -1.385365 0.583749
v -1.272792 -0.736438 -0.343016
v -1.272792 -0.900268 -0.457731
v -0.141421 -1.549196 0.469034
v 0.141421 0.074722 -1.501471
v 1.272792 -0.574206 -0.574707
v -0.141421 -0.089108 -1.616187
v -1.272792 -0.738036 -0.689422
v 1.272792 -0.736437 -0.343015
v 0.141421 -1.385365 0.583749
v -1.272792 -0.574206 -0.574707
v -0.141421 0.074722 -1.501471
v 0.141421 -1.549196 0.469034
v 1.272792 -0.900268 -0.457731
v 0.000000 -0.170224 -1.500341
v -1.131371 -0.819152 -0.573577
v 1.131371 -0.819152 -0.573576
v 0.000000 -1.468080 0.353188
v 1.131371 -0.655322 -0.458861
v 0.000000 -1.304249 0.467904
v 0.000000 -0.006394 -1.385626
v -1.131371 -0.655322 -0.458861
v -0.000000 1.466481 -0.699595
v -0.000000 1.630311 -0.584880
v -1.414214 0.655321 0.458861
v -1.414214 0.819151 0.573576
v 1.414214 0.655321 0.458861
v 1.414214 0.819152 0.573576
v -0.000000 -0.155839 1.617316
v -0.000000 0.007992 1.732032
v 0.141421 1.549196 -0.469034
v 1.272792 0.900268 0.457731
v -1.272792 0.574205 0.574706
v -0.141421 -0.074723 1.501471
v -0.141421 0.089108 1.616186
v -1.272792 0.738035 0.689422
v 1.272792 0.736437 0.343015
v 0.141421 1.385365 -0.583749
v 1.272792 0.738036 0.689422
v 0.141421 0.089108 1.616186
v -0.141421 1.385365 -0.583749
v -1.272792 0.736437 0.343015
v 0.141421 -0.074723 1.501471
v 1.272792 0.574205 0.574707
v -1.272792 0.900267 0.457730
v -0.141421 1.549196 -0.469034
v 1.131371 0.819152 0.573576
v -0.000000 0.170224 1.500341
v -0.000000 1.468079 -0.353188
v -1.131371 0.819151 0.573576
v -0.000000 1.304249 -0.467904
v -1.131371 0.655321 0.458861
v 1.131371 0.655321 0.458861
v -0.000000 0.006393 1.385625
vt 0.375000 0.975000
vt 0.625000 0.975000
vt 0.625000 1.000000
vt 0.375000 1.000000
vt 0.375000 0.225000
vt 0.625000 0.225000
vt 0.625000 0.250000
vt 0.375000 0.250000
vt 0.350000 0.725000
vt 0.375000 0.725000
vt 0.375000 0.750000
vt 0.350000 0.750000
vt 0.625000 0.725000
vt 0.625000 0.750000
vt 0.375000 0.475000
vt 0.625000 0.475000
vt 0.625000 0.500000
vt 0.375000 0.500000
vt 0.625000 0.275000
vt 0.375000 0.275000
vt 0.125000 0.725000
vt 0.150000 0.725000
vt 0.150000 0.750000
vt 0.125000 0.750000
vt 0.625000 0.775000
vt 0.375000 0.775000
vt 0.650000 0.725000
vt 0.850000 0.725000
vt 0.850000 0.750000
vt 0.650000 0.750000
vt 0.650000 0.500000
vt 0.850000 0.500000
vt 0.850000 0.525000
vt 0.650000 0.525000
vt 0.625000 0.525000
vt 0.150000 0.500000
vt 0.350000 0.500000
vt 0.350000 0.525000
vt 0.150000 0.525000
vt 0.125000 0.500000
vt 0.125000 0.525000
vt 0.375000 0.525000
vt 0.375000 0.000000
vt 0.625000 0.000000
vt 0.625000 0.025000
vt 0.375000 0.025000
vt 0.875000 0.525000
vt 0.875000 0.725000
vt 0.375000 0.975000
vt 0.625000 0.975000
vt 0.625000 1.000000
vt 0.375000 1.000000
vt 0.375000 0.225000
vt 0.625000 0.225000
vt 0.625000 0.250000
vt 0.375000 0.250000
vt 0.350000 0.725000
vt 0.375000 0.725000
vt 0.375000 0.750000
vt 0.350000 0.750000
vt 0.625000 0.725000
vt 0.625000 0.750000
vt 0.375000 0.475000
vt 0.625000 0.475000
vt 0.625000 0.500000
vt 0.375000 0.500000
vt 0.625000 0.275000
vt 0.375000 0.275000
vt 0.125000 0.725000
vt 0.150000 0.725000
vt 0.150000 0.750000
vt 0.125000 0.750000
vt 0.625000 0.775000
vt 0.375000 0.775000
vt 0.650000 0.725000
vt 0.850000 0.725000
vt 0.850000 0.750000
vt 0.650000 0.750000
vt 0.650000 0.500000
vt 0.850000 0.500000
vt 0.850000 0.525000
vt 0.650000 0.525000
vt 0.625000 0.525000
vt 0.150000 0.500000
vt 0.350000 0.500000
vt 0.350000 0.525000
vt 0.150000 0.525000
vt 0.125000 0.500000
vt 0.125000 0.525000
vt 0.375000 0.525000
vt 0.375000 0.000000
vt 0.625000 0.000000
vt 0.625000 0.025000
vt 0.375000 0.025000
vt 0.875000 0.525000
vt 0.875000 0.725000
vn -0.7071 -0.4056 0.5792
vn -0.7071 0.4056 -0.5792
vn 0.0000 -0.8192 -0.5736
vn 0.7071 -0.4056 0.5792
vn 0.7071 0.4056 -0.5792
vn -0.0000 0.8192 0.5736
usemtl Material
s off
f 13/1/1 12/2/1 7/3/1 8/4/1
f 17/5/2 22/6/2 5/7/2 6/8/2
f 28/9/3 23/10/3 4/11/3 14/12/3
f 23/10/4 20/13/4 3/14/4 4/11/4
f 9/15/5 16/16/5 1/17/5 2/18/5
f 6/8/5 5/7/5 15/19/5 10/20/5
f 15/19/5 16/16/5 9/15/5 10/20/5
f 18/21/3 26/22/3 13/23/3 8/24/3
f 26/22/3 28/9/3 14/12/3 13/23/3
f 4/11/1 3/14/1 11/25/1 14/26/1
f 11/25/1 12/2/1 13/1/1 14/26/1
f 30/27/6 32/28/6 12/29/6 11/30/6
f 16/31/6 15/32/6 31/33/6 29/34/6
f 19/35/6 29/34/6 30/27/6 20/13/6
f 10/36/3 9/37/3 27/38/3 25/39/3
f 6/40/3 10/36/3 25/39/3 17/41/3
f 17/41/3 25/39/3 26/22/3 18/21/3
f 2/18/4 1/17/4 19/35/4 24/42/4
f 24/42/4 19/35/4 20/13/4 23/10/4
f 9/37/3 2/18/3 24/42/3 27/38/3
f 27/38/3 24/42/3 23/10/3 28/9/3
f 8/43/2 7/44/2 21/45/2 18/46/2
f 18/46/2 21/45/2 22/6/2 17/5/2
f 31/33/6 22/47/6 21/48/6 32/28/6
f 26/22/4 25/39/4 31/33/4 32/28/4
f 29/34/1 31/33/1 25/39/1 27/38/1
f 28/9/2 30/27/2 29/34/2 27/38/2
f 32/28/5 30/27/5 28/9/5 26/22/5
f 45/49/1 44/50/1 39/51/1 40/52/1
f 49/53/4 54/54/4 37/55/4 38/56/4
f 60/57/6 55/58/6 36/59/6 46/60/6
f 55/58/2 52/61/2 35/62/2 36/59/2
f 41/63/5 48/64/5 33/65/5 34/66/5
f 38/56/5 37/55/5 47/67/5 42/68/5
f 47/67/5 48/64/5 41/63/5 42/68/5
f 50/69/6 58/70/6 45/71/6 40/72/6
f 58/70/6 60/57/6 46/60/6 45/71/6
f 36/59/1 35/62/1 43/73/1 46/74/1
f 43/73/1 44/50/1 45/49/1 46/74/1
f 62/75/3 64/76/3 44/77/3 43/78/3
f 48/79/3 47/80/3 63/81/3 61/82/3
f 51/83/3 61/82/3 62/75/3 52/61/3
f 42/84/6 41/85/6 59/86/6 57/87/6
f 38/88/6 42/84/6 57/87/6 49/89/6
f 49/89/6 57/87/6 58/70/6 50/69/6
f 34/66/2 33/65/2 51/83/2 56/90/2
f 56/90/2 51/83/2 52/61/2 55/58/2
f 41/85/6 34/66/6 56/90/6 59/86/6
f 59/86/6 56/90/6 55/58/6 60/57/6
f 40/91/4 39/92/4 53/93/4 50/94/4
f 50/94/4 53/93/4 54/54/4 49/53/4
f 63/81/3 54/95/3 53/96/3 64/76/3
f 58/70/2 57/87/2 63/81/2 64/76/2
f 61/82/1 63/81/1 57/87/1 59/86/1
f 60/57/4 62/75/4 61/82/4 59/86/4
f 64/76/5 62/75/5 60/57/5 58/70/5
f 12/29/4 32/28/4 62/75/4 43/78/4
f 7/3/1 12/29/1 43/73/1 35/62/1
f 21/45/2 7/3/2 35/62/2 52/61/2
f 32/28/5 21/45/5 52/61/5 62/75/5
f 5/7/2 22/6/2 51/83/2 33/65/2
f 22/6/1 31/33/1 61/82/1 51/83/1
f 31/33/4 15/32/4 48/79/4 61/82/4
f 15/32/5 5/7/5 33/65/5 48/79/5
f 1/17/5 16/16/5 47/67/5 37/55/5
f 19/35/4 1/17/4 37/55/4 54/54/4
f 29/34/1 19/35/1 54/95/1 63/81/1
f 16/16/2 29/34/2 63/81/2 47/67/2
f 3/14/4 20/13/4 53/93/4 39/92/4
f 11/25/1 3/14/1 39/51/1 44/50/1
f 30/27/2 11/25/2 44/77/2 64/76/2
f 20/13/5 30/27/5 64/76/5 53/93/5
