{"accessors" : [{"bufferView" : 0, "byteOffset" : 0, "componentType" : 5123, "count" : 432, "type" : "SCALAR", "max" : [431], "min" : [0]}, {"bufferView" : 1, "byteOffset" : 0, "componentType" : 5126, "count" : 432, "type" : "VEC3", "max" : [1.414214015007019, 1.6303110122680664, 1.7320319414138794], "min" : [-1.414214015007019, -1.6303119659423828, -1.7320319414138794]}, {"bufferView" : 1, "byteOffset" : 12, "componentType" : 5126, "count" : 432, "type" : "VEC2", "max" : [0.875, -0], "min" : [0.125, -1]}, {"bufferView" : 1, "byteOffset" : 20, "componentType" : 5126, "count" : 432, "type" : "VEC3", "max" : [0.7071121335029602, 0.8191603422164917, 0.5792099237442017], "min" : [-0.7071121335029602, -0.8191603422164917, -0.5792099237442017]}], "asset" : {"generator" : "Aspose.3D 20.9.1", "version" : "2.0"}, "buffers" : [{"uri" : "buffer.bin", "byteLength" : 14696}], "bufferViews" : [{"buffer" : 0, "byteOffset" : 0, "byteLength" : 864, "target" : 34963}, {"buffer" : 0, "byteOffset" : 868, "byteLength" : 13824, "byteStride" : 32, "target" : 34962}], "meshes" : [{"primitives" : [{"attributes" : {"POSITION" : 1, "TEXCOORD_0" : 2, "NORMAL" : 3}, "indices" : 0, "mode" : 4}]}], "nodes" : [{"mesh" : 0, "name" : "Cube"}], "scene" : 0, "scenes" : [{"nodes" : [0]}]}