{
    "asset" : {
        "generator" : "Khronos glTF Blender I/O v1.3.48",
        "version" : "2.0"
    },
    "scene" : 0,
    "scenes" : [
        {
            "name" : "Scene",
            "nodes" : [
                0
            ]
        }
    ],
    "nodes" : [
        {
            "mesh" : 0,
            "name" : "Cube",
            "translation" : [
                0,
                -0.0009631342254579067,
                -0.0008251725230365992
            ]
        }
    ],
    "materials" : [
        {
            "doubleSided" : true,
            "emissiveFactor" : [
                0,
                0,
                0
            ],
            "name" : "Material.001",
            "pbrMetallicRoughness" : {
                "baseColorFactor" : [
                    0.9822508692741394,
                    0.5711250305175781,
                    0.10224176198244095,
                    1
                ],
                "metallicFactor" : 0,
                "roughnessFactor" : 1
            }
        }
    ],
    "meshes" : [
        {
            "name" : "Cube",
            "primitives" : [
                {
                    "attributes" : {
                        "POSITION" : 0,
                        "NORMAL" : 1
                    },
                    "indices" : 2,
                    "material" : 0
                }
            ]
        }
    ],
    "accessors" : [
        {
            "bufferView" : 0,
            "componentType" : 5126,
            "count" : 1632,
            "max" : [
                1.4100713729858398,
                1.6234214305877686,
                1.7247116565704346
            ],
            "min" : [
                -1.4100713729858398,
                -1.6234208345413208,
                -1.7247116565704346
            ],
            "type" : "VEC3"
        },
        {
            "bufferView" : 1,
            "componentType" : 5126,
            "count" : 1632,
            "type" : "VEC3"
        },
        {
            "bufferView" : 2,
            "componentType" : 5123,
            "count" : 2448,
            "type" : "SCALAR"
        }
    ],
    "bufferViews" : [
        {
            "buffer" : 0,
            "byteLength" : 19584,
            "byteOffset" : 0
        },
        {
            "buffer" : 0,
            "byteLength" : 19584,
            "byteOffset" : 19584
        },
        {
            "buffer" : 0,
            "byteLength" : 4896,
            "byteOffset" : 39168
        }
    ],
    "buffers" : [
        {
            "byteLength" : 44064,
            "uri" : "cube-animated.bin"
        }
    ]
}
