{
    "asset" : {
        "generator" : "Khronos glTF Blender I/O v1.3.48",
        "version" : "2.0"
    },
    "scene" : 0,
    "scenes" : [
        {
            "extras" : {
                "glTF2ExportSettings" : {
                    "export_animations" : 1,
                    "export_apply" : 1,
                    "export_colors" : 0,
                    "export_extras" : 1,
                    "export_format" : "GLTF_SEPARATE",
                    "export_lights" : 0,
                    "export_materials" : 1,
                    "export_morph" : 0,
                    "export_skins" : 0,
                    "export_tangents" : 0,
                    "export_texcoords" : 0,
                    "export_texture_dir" : "",
                    "export_yup" : 1,
                    "use_selection" : 1
                }
            },
            "name" : "Scene",
            "nodes" : [
                0,
                9
            ]
        }
    ],
    "nodes" : [
        {
            "mesh" : 0,
            "name" : "Cube"
        },
        {
            "name" : "Point.001",
            "translation" : [
                2.3545303344726562,
                1.3237015008926392,
                0.6000000238418579
            ]
        },
        {
            "name" : "Point.002",
            "translation" : [
                -2.277458429336548,
                1.3853589296340942,
                0.6000000238418579
            ]
        },
        {
            "name" : "Point.003",
            "translation" : [
                0,
                2.4316020011901855,
                -0.5838122367858887
            ]
        },
        {
            "name" : "Point.004",
            "translation" : [
                0,
                -2.292872905731201,
                0.7071270942687988
            ]
        },
        {
            "name" : "Point.005",
            "translation" : [
                0,
                0.1387292593717575,
                2.539116144180298
            ]
        },
        {
            "name" : "Point.006",
            "translation" : [
                0,
                -0.03082869201898575,
                -2.6932597160339355
            ]
        },
        {
            "name" : "Point.007",
            "translation" : [
                2.3237016201019287,
                -1.3387292623519897,
                -0.8229281902313232
            ]
        },
        {
            "name" : "Point.008",
            "translation" : [
                -2.2003867626190186,
                -1.3387292623519897,
                -0.8999999761581421
            ]
        },
        {
            "children" : [
                1,
                2,
                3,
                4,
                5,
                6,
                7,
                8
            ],
            "name" : "Point",
            "translation" : [
                0,
                -0.005642920732498169,
                0.004637032747268677
            ]
        }
    ],
    "animations" : [
        {
            "channels" : [
                {
                    "sampler" : 0,
                    "target" : {
                        "node" : 9,
                        "path" : "translation"
                    }
                },
                {
                    "sampler" : 1,
                    "target" : {
                        "node" : 9,
                        "path" : "rotation"
                    }
                },
                {
                    "sampler" : 2,
                    "target" : {
                        "node" : 9,
                        "path" : "scale"
                    }
                }
            ],
            "name" : "PointAction",
            "samplers" : [
                {
                    "input" : 3,
                    "interpolation" : "LINEAR",
                    "output" : 4
                },
                {
                    "input" : 3,
                    "interpolation" : "LINEAR",
                    "output" : 5
                },
                {
                    "input" : 3,
                    "interpolation" : "LINEAR",
                    "output" : 6
                }
            ]
        }
    ],
    "meshes" : [
        {
            "name" : "Cube",
            "primitives" : [
                {
                    "attributes" : {
                        "POSITION" : 0,
                        "NORMAL" : 1
                    },
                    "indices" : 2
                }
            ]
        }
    ],
    "accessors" : [
        {
            "bufferView" : 0,
            "componentType" : 5126,
            "count" : 192,
            "max" : [
                1.4142135381698608,
                1.6303118467330933,
                1.732032060623169
            ],
            "min" : [
                -1.4142135381698608,
                -1.630311369895935,
                -1.732032060623169
            ],
            "type" : "VEC3"
        },
        {
            "bufferView" : 1,
            "componentType" : 5126,
            "count" : 192,
            "type" : "VEC3"
        },
        {
            "bufferView" : 2,
            "componentType" : 5123,
            "count" : 432,
            "type" : "SCALAR"
        },
        {
            "bufferView" : 3,
            "componentType" : 5126,
            "count" : 320,
            "max" : [
                10.666666666666666
            ],
            "min" : [
                0.03333333333333333
            ],
            "type" : "SCALAR"
        },
        {
            "bufferView" : 4,
            "componentType" : 5126,
            "count" : 320,
            "type" : "VEC3"
        },
        {
            "bufferView" : 5,
            "componentType" : 5126,
            "count" : 320,
            "type" : "VEC4"
        },
        {
            "bufferView" : 6,
            "componentType" : 5126,
            "count" : 320,
            "type" : "VEC3"
        }
    ],
    "bufferViews" : [
        {
            "buffer" : 0,
            "byteLength" : 2304,
            "byteOffset" : 0
        },
        {
            "buffer" : 0,
            "byteLength" : 2304,
            "byteOffset" : 2304
        },
        {
            "buffer" : 0,
            "byteLength" : 864,
            "byteOffset" : 4608
        },
        {
            "buffer" : 0,
            "byteLength" : 1280,
            "byteOffset" : 5472
        },
        {
            "buffer" : 0,
            "byteLength" : 3840,
            "byteOffset" : 6752
        },
        {
            "buffer" : 0,
            "byteLength" : 5120,
            "byteOffset" : 10592
        },
        {
            "buffer" : 0,
            "byteLength" : 3840,
            "byteOffset" : 15712
        }
    ],
    "buffers" : [
        {
            "byteLength" : 19552,
            "uri" : "cube-animated.bin"
        }
    ]
}
